PathFileType	4	(X/Y/Z)	C:/Users/opensim2020/Desktop/walking_exp_matlab/subject06_walking16_straight_03.trc	
DataRate	CameraRate	NumFrames	NumMarkers	Units	OrigDataRate	OrigDataStartFrame	OrigNumFrames	
100.00	100.00	4	51	mm	100.00	2858	283	
Frame#	Time	LFHD			RFHD			LBHD			RBHD			C7			T10			CLAV			STRN			RBAK			LSHO			LUPA			LELB			LFRM			LWRA			LWRB			LFIN			RSHO			RUPA			RELB			RFRM			RWRA			RWRB			RFIN			LASI			RASI			LPSI			RPSI			LTHI			LKNE			LTIB			LANK			LHEE			LTOE			RTHI			RKNE			RTIB			RANK			RHEE			RTOE			*39			*40			*41			*42			*43			*44			*45			*46			*47			*48			*49			*50			
		X1	Y1	Z1	X2	Y2	Z2	X3	Y3	Z3	X4	Y4	Z4	X5	Y5	Z5	X6	Y6	Z6	X7	Y7	Z7	X8	Y8	Z8	X9	Y9	Z9	X10	Y10	Z10	X11	Y11	Z11	X12	Y12	Z12	X13	Y13	Z13	X14	Y14	Z14	X15	Y15	Z15	X16	Y16	Z16	X17	Y17	Z17	X18	Y18	Z18	X19	Y19	Z19	X20	Y20	Z20	X21	Y21	Z21	X22	Y22	Z22	X23	Y23	Z23	X24	Y24	Z24	X25	Y25	Z25	X26	Y26	Z26	X27	Y27	Z27	X28	Y28	Z28	X29	Y29	Z29	X30	Y30	Z30	X31	Y31	Z31	X32	Y32	Z32	X33	Y33	Z33	X34	Y34	Z34	X35	Y35	Z35	X36	Y36	Z36	X37	Y37	Z37	X38	Y38	Z38	X39	Y39	Z39	X40	Y40	Z40	X41	Y41	Z41	X42	Y42	Z42	X43	Y43	Z43	X44	Y44	Z44	X45	Y45	Z45	X46	Y46	Z46	X47	Y47	Z47	X48	Y48	Z48	X49	Y49	Z49	X50	Y50	Z50	X51	Y51	Z51	

36	0.350	-1047.22864	-741.68591	1664.77625	-917.84583	-750.18481	1650.48645	-1057.83020	-875.57239	1609.50391	-928.46716	-881.04230	1600.52759	-996.99286	-880.73676	1454.19006	-983.28345	-927.56152	1127.07117	-999.59082	-775.22314	1370.98376	-1003.25659	-744.63879	1194.16919	-906.60016	-955.19135	1289.01843	-1159.50354	-834.83734	1402.28247	-1225.77185	-864.48389	1198.82031	-1234.72571	-883.98468	1087.99927	-1262.27783	-878.17804	939.33594	-1234.85437	-818.43744	819.84497	-1257.70093	-888.57941	820.02863	-1268.49133	-854.96802	736.19586	-838.67365	-808.21466	1410.81555	-741.21564	-813.88275	1215.26184	-722.18512	-779.59009	1098.88831	-705.30920	-727.96960	990.27765	-741.32587	-630.37903	877.75592	-696.75983	-678.22394	862.22083	-697.78436	-617.59186	803.91949	-1097.75464	-758.54755	964.50500	-878.59760	-751.93121	968.03693	-1069.95813	-914.53314	988.81519	-901.52069	-903.18890	995.55963	-1159.22815	-754.46344	653.26923	-1129.70679	-690.37036	504.33966	-1131.54761	-721.25702	254.24678	-1097.93311	-724.76154	79.87955	-1050.92639	-765.13983	62.68672	-1095.70386	-584.47583	52.09194	-829.76990	-818.19208	634.82050	-855.12903	-825.14301	509.27231	-861.32904	-901.23938	250.43796	-911.26251	-936.89233	67.04874	-955.18378	-979.95245	43.27255	-912.93091	-788.97107	35.67041	-994.66583	-847.08002	1700.78613																																	 
37	0.360	-1047.91321	-734.71442	1663.95068	-918.34583	-743.15656	1650.08081	-1058.49878	-868.62207	1608.75610	-929.12695	-874.18134	1599.95374	-997.26733	-873.87415	1453.38501	-983.28040	-920.41803	1126.30505	-999.89844	-768.19440	1370.31982	-1003.29645	-737.34137	1193.67236	-906.60217	-948.03259	1288.27234	-1159.80627	-828.03937	1401.52148	-1226.21448	-859.82751	1198.65076	-1234.58948	-880.93378	1087.95178	-1262.29614	-877.63867	939.28265	-1236.24072	-820.20245	818.79565	-1258.09180	-890.21558	820.10284	-1269.40808	-858.49243	735.70245	-839.00684	-801.14001	1410.33057	-741.13513	-805.98865	1215.07910	-721.67487	-771.04877	1098.99280	-704.97693	-718.00647	991.01941	-741.56427	-619.03772	879.98517	-696.75507	-666.30963	863.71759	-697.77094	-604.82117	806.67865	-1097.38306	-751.14020	964.20172	-878.31897	-745.08490	967.35498	-1070.26172	-906.86505	988.00055	-901.75903	-896.16321	994.69421	-1160.16577	-746.99323	653.35419	-1130.78333	-683.16968	503.67413	-1132.35217	-705.05389	251.61278	-1098.97083	-699.36841	77.95930	-1052.23840	-739.36377	59.35194	-1094.14355	-557.90674	54.33903	-830.08441	-812.51215	633.93414	-855.34418	-820.39844	508.35049	-862.00922	-898.99957	250.27328	-911.55322	-936.39069	67.13337	-955.32800	-979.81268	43.62284	-912.65509	-788.60828	35.42198	-995.43341	-840.14679	1700.07495																																	 
38	0.370	-1048.63489	-727.76758	1663.09473	-918.84576	-736.46936	1649.43335	-1059.20178	-861.60095	1607.89380	-929.79681	-867.29401	1599.34009	-997.60406	-866.83057	1452.53015	-983.31244	-913.19623	1125.40259	-1000.26611	-760.97711	1369.61414	-1003.32410	-729.92548	1193.08582	-906.65143	-940.76794	1287.40918	-1160.20959	-821.13690	1400.75464	-1226.26465	-855.08606	1198.21899	-1234.82227	-877.51935	1087.84473	-1262.52283	-876.88477	939.19006	-1236.92468	-822.10156	817.10248	-1258.48621	-891.49640	820.30414	-1270.30237	-861.40912	735.42578	-839.35754	-794.06927	1409.72961	-740.99969	-798.34204	1214.76001	-721.26337	-762.51471	1098.97046	-704.70404	-708.04980	991.66272	-741.61542	-607.71649	882.17023	-696.80469	-654.56842	865.06982	-697.82886	-592.11816	809.16174	-1096.81714	-743.48779	964.00055	-878.09998	-737.99780	966.69061	-1070.54297	-899.15594	987.18994	-902.01855	-889.03668	993.71613	-1160.99854	-739.54486	652.85370	-1131.41589	-676.37701	502.82382	-1133.47949	-688.20935	250.10580	-1099.97083	-674.63556	76.68623	-1053.91272	-714.60181	57.24360	-1093.12207	-531.87469	57.07475	-830.58752	-806.71710	633.00500	-855.56360	-815.46490	507.40317	-862.43134	-896.47180	249.98659	-911.82520	-935.86310	67.23276	-955.49432	-979.58307	44.02061	-912.23865	-788.24390	35.02399	-996.26233	-833.19220	1699.38916																																	 
39	0.380	-1048.96729	-720.38342	1662.05823	-919.64771	-729.44019	1648.79639	-1059.92847	-854.49036	1606.94104	-930.53198	-860.30298	1598.58069	-998.00732	-859.74963	1451.53357	-983.41083	-905.88757	1124.39221	-1000.53894	-753.77039	1368.77258	-1003.42218	-722.34564	1192.44885	-906.79895	-933.51697	1286.46582	-1160.51758	-814.17572	1399.79858	-1226.90442	-850.40204	1197.80359	-1234.81714	-874.18427	1087.83545	-1263.20911	-876.16663	939.30511	-1237.92737	-822.60773	816.32849	-1258.97156	-892.31268	820.57788	-1271.06018	-863.65302	735.15112	-839.80792	-786.97375	1409.01575	-740.94171	-790.70410	1214.30298	-721.02069	-753.96228	1098.82410	-704.55157	-698.19794	992.20227	-741.53387	-596.36688	884.24536	-696.91119	-643.01282	866.25592	-698.06952	-579.77399	811.52136	-1096.39111	-735.65948	963.72186	-877.88104	-730.93054	965.93604	-1070.74121	-891.45624	986.27606	-902.22424	-881.75421	992.59705	-1161.81177	-732.77496	651.99438	-1132.30615	-669.21942	502.01001	-1134.50146	-671.85590	248.91954	-1100.94104	-651.03851	75.93193	-1055.04602	-690.59497	55.52764	-1092.17078	-507.06140	60.28203	-830.76117	-800.62921	632.06586	-855.78320	-810.23407	506.36298	-863.20178	-894.00366	249.81529	-912.06519	-935.24048	67.32597	-955.72162	-979.18854	44.36134	-911.78186	-787.86963	34.63423	-997.14075	-826.08722	1698.59680																																	 
